<svg width="16" height="17" viewBox="0 0 16 17" fill="none" xmlns="http://www.w3.org/2000/svg">
<path d="M12 9.33895V14.0056H2.6667V4.67228H6.01336C6.04669 4.19895 6.16003 3.75228 6.33336 3.33895H2.6667C1.93337 3.33895 1.33337 3.93895 1.33337 4.67228V14.0056C1.33337 14.7389 1.93337 15.3389 2.6667 15.3389H12C12.7333 15.3389 13.3333 14.7389 13.3333 14.0056V10.6723L12 9.33895ZM11 12.6723H3.6667L5.50003 10.3189L6.80669 11.8923L8.64002 9.53228L11 12.6723ZM12.8667 6.59895C13.16 6.13228 13.3333 5.59228 13.3333 5.00561C13.3333 3.34562 11.9933 2.00562 10.3333 2.00562C8.67335 2.00562 7.33336 3.34562 7.33336 5.00561C7.33336 6.66562 8.67335 8.00561 10.3267 8.00561C10.9133 8.00561 11.46 7.83228 11.92 7.53895L14 9.61895L14.9467 8.67228L12.8667 6.59895ZM10.3333 6.67228C9.89132 6.67228 9.4674 6.49669 9.15484 6.18413C8.84228 5.87157 8.66669 5.44764 8.66669 5.00561C8.66669 4.56359 8.84228 4.13966 9.15484 3.8271C9.4674 3.51454 9.89132 3.33895 10.3333 3.33895C10.7754 3.33895 11.1993 3.51454 11.5119 3.8271C11.8244 4.13966 12 4.56359 12 5.00561C12 5.44764 11.8244 5.87157 11.5119 6.18413C11.1993 6.49669 10.7754 6.67228 10.3333 6.67228Z" fill="#667085"/>
</svg>
