<svg width="16" height="17" viewBox="0 0 16 17" fill="none" xmlns="http://www.w3.org/2000/svg">
<path d="M6.06745 3.12602L8.77082 5.30704L11.7445 2.85339H14.1776V3.39864L15.5293 2.0355L14.1776 0.672363V1.21762H11.4742L8.77082 3.39864L6.06745 1.49025L2.82339 3.39864V4.92536L6.06745 3.12602Z" fill="#475467"/>
<path d="M7.25215 13.0266H5.35487C5.30349 13.0266 5.25423 12.9978 5.2179 12.9467C5.18157 12.8956 5.16114 12.8263 5.16108 12.754V5.58333C5.16114 5.51105 5.18157 5.44174 5.2179 5.39063C5.25423 5.33951 5.30349 5.31076 5.35487 5.31068H7.25215C7.30353 5.31076 7.35279 5.33951 7.38912 5.39063C7.42545 5.44174 7.44588 5.51105 7.44595 5.58333V12.754C7.44588 12.8263 7.42545 12.8956 7.38912 12.9467C7.35279 12.9978 7.30353 13.0266 7.25215 13.0266Z" fill="#475467"/>
<path d="M10.3482 11.6744H8.45089C8.39951 11.6743 8.35025 11.6415 8.31392 11.5832C8.27759 11.5249 8.25716 11.4458 8.2571 11.3633V7.16315C8.25716 7.08064 8.27759 7.00155 8.31392 6.94321C8.35025 6.88487 8.39951 6.85206 8.45089 6.85196H10.3482C10.3996 6.85206 10.4488 6.88487 10.4851 6.94321C10.5215 7.00154 10.5419 7.08064 10.542 7.16315V11.3633C10.5419 11.4458 10.5215 11.5249 10.4851 11.5832C10.4488 11.6415 10.3996 11.6743 10.3482 11.6744Z" fill="#667085"/>
<path d="M13.5262 12.4426H11.5559C11.5038 12.4441 11.4533 12.4187 11.4156 12.3722C11.3779 12.3256 11.356 12.2616 11.3547 12.1941V4.01074C11.356 3.94332 11.3779 3.8793 11.4156 3.83273C11.4533 3.78616 11.5038 3.76083 11.5559 3.76228H13.5262C13.5783 3.76083 13.6288 3.78616 13.6665 3.83273C13.7042 3.8793 13.7261 3.94332 13.7274 4.01074V12.1941C13.7261 12.2616 13.7042 12.3256 13.6665 12.3722C13.6288 12.4187 13.5783 12.4441 13.5262 12.4426Z" fill="#475467"/>
<path d="M15.2 13.4796H14.4V11.8832H11.2L5.59999 7.89223L3.2 8.53078V1.50667C3.2 1.02775 2.88 0.708476 2.4 0.708476C1.92 0.708476 1.6 1.02775 1.6 1.50667V13.4796H0.799999C0.32 13.4796 0 13.7989 0 14.2778C0 14.7567 0.32 15.076 0.799999 15.076H1.6V15.8742C1.6 16.3531 1.92 16.6724 2.4 16.6724C2.88 16.6724 3.2 16.3531 3.2 15.8742V15.076H15.2C15.68 15.076 16 14.7567 16 14.2778C16 13.7989 15.68 13.4796 15.2 13.4796Z" fill="#667085"/>
</svg>
