<svg width="16" height="17" viewBox="0 0 16 17" fill="none" xmlns="http://www.w3.org/2000/svg">
<path d="M1.74999 16.6724C1.28587 16.6724 0.840749 16.488 0.512562 16.1598C0.184374 15.8316 0 15.3865 0 14.9224L0 2.42236C0 1.45636 0.783998 0.672363 1.74999 0.672363H10.25C11.216 0.672363 12 1.45636 12 2.42236V14.9224C12 15.0074 11.994 15.0904 11.982 15.1724H14.25C14.3163 15.1724 14.3799 15.146 14.4267 15.0991C14.4736 15.0523 14.5 14.9887 14.5 14.9224V8.95736C14.5 8.91624 14.4899 8.87574 14.4705 8.83946C14.4512 8.80317 14.4231 8.77223 14.389 8.74936L13.334 8.04636C13.252 7.99173 13.1816 7.9215 13.1268 7.83967C13.072 7.75784 13.0339 7.66601 13.0146 7.56944C12.9953 7.47287 12.9952 7.37344 13.0143 7.27682C13.0334 7.18021 13.0713 7.08831 13.126 7.00636C13.1806 6.92442 13.2508 6.85404 13.3327 6.79924C13.4145 6.74443 13.5063 6.70629 13.6029 6.68697C13.6995 6.66766 13.7989 6.66755 13.8955 6.68667C13.9921 6.70578 14.084 6.74373 14.166 6.79836L15.221 7.50136C15.708 7.82636 16 8.37236 16 8.95736V14.9224C16 15.3865 15.8156 15.8316 15.4874 16.1598C15.1592 16.488 14.7141 16.6724 14.25 16.6724H10.75C10.6835 16.6723 10.6172 16.6635 10.553 16.6464C10.454 16.6634 10.353 16.6724 10.25 16.6724H7.24998C7.05107 16.6724 6.8603 16.5933 6.71965 16.4527C6.579 16.312 6.49998 16.1213 6.49998 15.9224V14.6724H5.49998V15.9224C5.49998 16.1213 5.42097 16.312 5.28031 16.4527C5.13966 16.5933 4.9489 16.6724 4.74999 16.6724H1.74999ZM1.5 14.9224C1.5 15.0604 1.612 15.1724 1.74999 15.1724H3.99999V13.9224C3.99999 13.7235 4.07901 13.5327 4.21966 13.392C4.36031 13.2514 4.55107 13.1724 4.74999 13.1724H7.24998C7.44889 13.1724 7.63966 13.2514 7.78031 13.392C7.92096 13.5327 7.99998 13.7235 7.99998 13.9224V15.1724H10.25C10.3163 15.1724 10.3799 15.146 10.4267 15.0991C10.4736 15.0523 10.5 14.9887 10.5 14.9224V2.42236C10.5 2.35606 10.4736 2.29247 10.4267 2.24559C10.3799 2.1987 10.3163 2.17236 10.25 2.17236H1.74999C1.68369 2.17236 1.6201 2.1987 1.57322 2.24559C1.52633 2.29247 1.5 2.35606 1.5 2.42236V14.9224ZM3.74999 6.67236H4.24999C4.4489 6.67236 4.63966 6.75138 4.78032 6.89203C4.92097 7.03269 4.99999 7.22345 4.99999 7.42236C4.99999 7.62128 4.92097 7.81204 4.78032 7.95269C4.63966 8.09335 4.4489 8.17236 4.24999 8.17236H3.74999C3.55108 8.17236 3.36031 8.09335 3.21966 7.95269C3.07901 7.81204 2.99999 7.62128 2.99999 7.42236C2.99999 7.22345 3.07901 7.03269 3.21966 6.89203C3.36031 6.75138 3.55108 6.67236 3.74999 6.67236ZM2.99999 4.42236C2.99999 4.22345 3.07901 4.03269 3.21966 3.89203C3.36031 3.75138 3.55108 3.67236 3.74999 3.67236H4.24999C4.4489 3.67236 4.63966 3.75138 4.78032 3.89203C4.92097 4.03269 4.99999 4.22345 4.99999 4.42236C4.99999 4.62128 4.92097 4.81204 4.78032 4.95269C4.63966 5.09335 4.4489 5.17236 4.24999 5.17236H3.74999C3.55108 5.17236 3.36031 5.09335 3.21966 4.95269C3.07901 4.81204 2.99999 4.62128 2.99999 4.42236ZM6.99998 7.42236C6.99998 7.22345 7.079 7.03269 7.21965 6.89203C7.3603 6.75138 7.55107 6.67236 7.74998 6.67236H8.24998C8.44889 6.67236 8.63965 6.75138 8.7803 6.89203C8.92096 7.03269 8.99997 7.22345 8.99997 7.42236C8.99997 7.62128 8.92096 7.81204 8.7803 7.95269C8.63965 8.09335 8.44889 8.17236 8.24998 8.17236H7.74998C7.55107 8.17236 7.3603 8.09335 7.21965 7.95269C7.079 7.81204 6.99998 7.62128 6.99998 7.42236ZM7.74998 3.67236H8.24998C8.44889 3.67236 8.63965 3.75138 8.7803 3.89203C8.92096 4.03269 8.99997 4.22345 8.99997 4.42236C8.99997 4.62128 8.92096 4.81204 8.7803 4.95269C8.63965 5.09335 8.44889 5.17236 8.24998 5.17236H7.74998C7.55107 5.17236 7.3603 5.09335 7.21965 4.95269C7.079 4.81204 6.99998 4.62128 6.99998 4.42236C6.99998 4.22345 7.079 4.03269 7.21965 3.89203C7.3603 3.75138 7.55107 3.67236 7.74998 3.67236ZM2.99999 10.4224C2.99999 10.2235 3.07901 10.0327 3.21966 9.89203C3.36031 9.75138 3.55108 9.67236 3.74999 9.67236H4.24999C4.4489 9.67236 4.63966 9.75138 4.78032 9.89203C4.92097 10.0327 4.99999 10.2235 4.99999 10.4224C4.99999 10.6213 4.92097 10.812 4.78032 10.9527C4.63966 11.0933 4.4489 11.1724 4.24999 11.1724H3.74999C3.55108 11.1724 3.36031 11.0933 3.21966 10.9527C3.07901 10.812 2.99999 10.6213 2.99999 10.4224ZM7.74998 9.67236H8.24998C8.44889 9.67236 8.63965 9.75138 8.7803 9.89203C8.92096 10.0327 8.99997 10.2235 8.99997 10.4224C8.99997 10.6213 8.92096 10.812 8.7803 10.9527C8.63965 11.0933 8.44889 11.1724 8.24998 11.1724H7.74998C7.55107 11.1724 7.3603 11.0933 7.21965 10.9527C7.079 10.812 6.99998 10.6213 6.99998 10.4224C6.99998 10.2235 7.079 10.0327 7.21965 9.89203C7.3603 9.75138 7.55107 9.67236 7.74998 9.67236Z" fill="#667085"/>
</svg>
