<svg width="16" height="17" viewBox="0 0 16 17" fill="none" xmlns="http://www.w3.org/2000/svg">
<path d="M9.84985 0.936782C9.5033 0.584224 8.97086 0.584224 8.62713 0.936782L2.76722 6.92714C2.5024 7.19546 2.40943 7.61354 2.52776 7.98793C4.9816 8.7773 6.91142 10.927 7.60729 13.6538H12.8445C13.5912 13.6538 14.1968 12.9831 14.1968 12.1562V8.65873H15.0984C15.4702 8.65873 15.8027 8.40601 15.938 8.02537C16.0732 7.64474 15.983 7.20794 15.7098 6.92714L9.84985 0.936782ZM7.88619 7.16115C7.88619 6.88658 8.08904 6.66194 8.33696 6.66194H10.14C10.388 6.66194 10.5908 6.88658 10.5908 7.16115V9.15792C10.5908 9.43249 10.388 9.65713 10.14 9.65713H8.33696C8.08904 9.65713 7.88619 9.43249 7.88619 9.15792V7.16115Z" fill="#475467"/>
<path d="M0 9.43401C0 9.01905 0.301447 8.68522 0.676143 8.68522C4.28506 8.68522 7.2122 11.9268 7.2122 15.9236C7.2122 16.3385 6.91075 16.6724 6.53606 16.6724C6.16136 16.6724 5.85991 16.3385 5.85991 15.9236C5.85991 12.7537 3.53848 10.1828 0.676143 10.1828C0.301447 10.1828 0 9.84897 0 9.43401Z" fill="#667085"/>
<path d="M1.539 16.3799C1.36993 16.5671 1.14062 16.6724 0.901525 16.6724C0.662426 16.6724 0.43312 16.5671 0.264051 16.3799C0.0949818 16.1927 0 15.9388 0 15.674C0 15.4092 0.0949818 15.1553 0.264051 14.968C0.43312 14.7808 0.662426 14.6756 0.901525 14.6756C1.14062 14.6756 1.36993 14.7808 1.539 14.968C1.70807 15.1553 1.80305 15.4092 1.80305 15.674C1.80305 15.9388 1.70807 16.1927 1.539 16.3799Z" fill="#667085"/>
<path d="M0.676143 13.178C0.301447 13.178 0 12.8441 0 12.4292C0 12.0142 0.301447 11.6804 0.676143 11.6804C2.79191 11.6804 4.50762 13.5805 4.50762 15.9236C4.50762 16.3385 4.20618 16.6724 3.83148 16.6724C3.45678 16.6724 3.15534 16.3385 3.15534 15.9236C3.15534 14.4072 2.04533 13.178 0.676143 13.178Z" fill="#667085"/>
</svg>
