<svg width="16" height="10" viewBox="0 0 16 10" fill="none" xmlns="http://www.w3.org/2000/svg">
<path d="M1.99996 9.33907C1.63329 9.33907 1.31951 9.20863 1.05862 8.94774C0.797737 8.68685 0.66707 8.37285 0.666626 8.00574V1.33907C0.666626 0.972404 0.797292 0.658626 1.05862 0.397737C1.31996 0.136848 1.63373 0.00618175 1.99996 0.0057373H8.6666C9.03327 0.0057373 9.34727 0.136404 9.6086 0.397737C9.86993 0.659071 10.0004 0.972848 9.99993 1.33907V8.00574C9.99993 8.3724 9.86949 8.6864 9.6086 8.94774C9.34771 9.20907 9.03371 9.33952 8.6666 9.33907H1.99996ZM1.99996 8.00574H8.6666V1.33907H1.99996V8.00574ZM11.3333 9.33907V0.0057373H12.6666V9.33907H11.3333ZM13.9999 9.33907V0.0057373H15.3333V9.33907H13.9999Z" fill="#667085"/>
</svg>
