<svg width="14" height="17" viewBox="0 0 14 17" fill="none" xmlns="http://www.w3.org/2000/svg">
<path fill-rule="evenodd" clip-rule="evenodd" d="M6.2381 1.39967C6.2381 0.997988 6.57923 0.672363 7.00004 0.672363C7.42085 0.672363 7.76198 0.997988 7.76198 1.39967H8.90488C9.11528 1.39967 9.28585 1.56248 9.28585 1.76332V2.49062C9.28585 2.69146 9.11528 2.85427 8.90488 2.85427H5.0952C4.88479 2.85427 4.71423 2.69146 4.71423 2.49062V1.76332C4.71423 1.56248 4.88479 1.39967 5.0952 1.39967H6.2381Z" fill="#667085"/>
<path fill-rule="evenodd" clip-rule="evenodd" d="M3.95229 2.48995V2.12629H2.42842C1.5868 2.12629 0.904541 2.77754 0.904541 3.5809V15.2178C0.904541 16.0211 1.5868 16.6724 2.42842 16.6724H11.5717C12.4133 16.6724 13.0955 16.0211 13.0955 15.2178V3.5809C13.0955 2.77754 12.4133 2.12629 11.5717 2.12629H10.0478V2.48995C10.0478 3.09246 9.53609 3.5809 8.90488 3.5809H5.0952C4.46399 3.5809 3.95229 3.09246 3.95229 2.48995ZM9.29756 8.61313L6.69532 11.1976C6.50422 11.3874 6.1952 11.3874 6.00613 11.1976L4.70502 9.90538C4.51392 9.71558 4.51392 9.40867 4.70502 9.22089C4.89612 9.03311 5.20513 9.03109 5.3942 9.22089L6.34971 10.1699L8.60634 7.92662C8.79744 7.73682 9.10646 7.73682 9.29552 7.92662C9.48459 8.11642 9.48663 8.42333 9.29552 8.61111L9.29756 8.61313Z" fill="#475467"/>
</svg>
