<svg width="14" height="17" viewBox="0 0 14 17" fill="none" xmlns="http://www.w3.org/2000/svg">
<path d="M7 3.21963L11.6932 5.92609V11.339L7 14.0455L2.30683 11.339V5.92609L7 3.21963ZM7 0.672363C6.76136 0.672363 6.52273 0.751965 6.36364 0.831567L0.636364 4.17485C0.238636 4.41366 0 4.89127 0 5.36888V11.9758C0 12.4535 0.238636 12.9311 0.636364 13.1699L6.36364 16.5132C6.60227 16.5928 6.76136 16.6724 7 16.6724C7.23864 16.6724 7.47727 16.5928 7.63636 16.5132L13.3636 13.1699C13.7614 12.9311 14 12.4535 14 11.9758V5.36888C14 4.89127 13.7614 4.41366 13.3636 4.17485L7.63636 0.831567C7.47727 0.751965 7.23864 0.672363 7 0.672363Z" fill="#475467"/>
<path d="M7 5.75193L4.69319 7.0256V9.73206L7 11.0057L9.30682 9.73206V7.0256L7 5.75193Z" fill="#667085"/>
</svg>
