<svg width="16" height="17" viewBox="0 0 16 17" fill="none" xmlns="http://www.w3.org/2000/svg">
<path d="M11.2714 2.11403L10.5493 0.854308C10.485 0.741808 10.3703 0.672363 10.2481 0.672363H5.7514C5.62915 0.672363 5.51447 0.741808 5.45019 0.854308L4.72679 2.11403C4.35375 2.76403 4.68395 3.6682 5.38088 3.77236C5.43129 3.77931 5.48296 3.78347 5.53337 3.78347C5.8623 3.78347 6.15469 3.62514 6.35507 3.3807C6.55545 3.62514 6.84784 3.78347 7.17677 3.78347C7.5057 3.78347 7.79809 3.62514 7.99847 3.3807C8.19885 3.62514 8.49124 3.78347 8.82017 3.78347C9.15036 3.78347 9.44148 3.62514 9.64187 3.3807C9.84351 3.62514 10.1346 3.78347 10.4636 3.78347C10.5152 3.78347 10.5656 3.77931 10.6161 3.77236C11.3155 3.66959 11.647 2.76542 11.2727 2.11403H11.2714ZM10.6677 4.21264H10.6665C10.5997 4.22236 10.5316 4.22792 10.4623 4.22792C10.306 4.22792 10.1561 4.20153 10.0162 4.15431V6.0057H5.98329V4.15292C5.84214 4.20153 5.69091 4.22792 5.53463 4.22792C5.46532 4.22792 5.396 4.22236 5.32921 4.21264H5.32795C5.27627 4.20431 5.22586 4.19459 5.17671 4.1807V6.89459C5.17671 7.38486 5.53841 7.78347 5.98329 7.78347H10.0162C10.461 7.78347 10.8227 7.38486 10.8227 6.89459V4.1807C10.7723 4.19459 10.7219 4.2057 10.6677 4.21264Z" fill="#667085"/>
<path d="M5.95555 11.0029L5.31365 9.7432C5.25651 9.6307 5.15457 9.56125 5.04591 9.56125H1.04887C0.940211 9.56125 0.838268 9.6307 0.781136 9.7432L0.138115 11.0029C-0.193477 11.6529 0.100027 12.5571 0.719522 12.6613C0.764332 12.6682 0.810262 12.6724 0.855072 12.6724C1.14746 12.6724 1.40735 12.514 1.58547 12.2696C1.76359 12.514 2.02349 12.6724 2.31587 12.6724C2.60825 12.6724 2.86815 12.514 3.04627 12.2696C3.22439 12.514 3.48429 12.6724 3.77667 12.6724C4.07017 12.6724 4.32895 12.514 4.50707 12.2696C4.68631 12.514 4.94509 12.6724 5.23747 12.6724C5.2834 12.6724 5.32821 12.6682 5.37302 12.6613C5.99475 12.5585 6.28938 11.6543 5.95667 11.0029H5.95555ZM5.41895 13.1015H5.41783C5.35846 13.1113 5.29796 13.1168 5.23635 13.1168C5.09744 13.1168 4.96413 13.0904 4.83978 13.0432V14.8946H1.255V13.0418C1.12953 13.0904 0.995103 13.1168 0.856192 13.1168C0.794579 13.1168 0.732965 13.1113 0.673592 13.1015H0.672472C0.626542 13.0932 0.581732 13.0835 0.538043 13.0696V15.7835C0.538043 16.2738 0.859553 16.6724 1.255 16.6724H4.83978C5.23523 16.6724 5.55674 16.2738 5.55674 15.7835V13.0696C5.51193 13.0835 5.46712 13.0946 5.41895 13.1015Z" fill="#667085"/>
<path d="M15.8603 11.0029L15.2184 9.7432C15.1612 9.6307 15.0593 9.56125 14.9506 9.56125H10.9536C10.8449 9.56125 10.743 9.6307 10.6859 9.7432L10.0428 11.0029C9.71126 11.6529 10.0048 12.5571 10.6243 12.6613C10.6691 12.6682 10.715 12.6724 10.7598 12.6724C11.0522 12.6724 11.3121 12.514 11.4902 12.2696C11.6683 12.514 11.9282 12.6724 12.2206 12.6724C12.513 12.6724 12.7729 12.514 12.951 12.2696C13.1291 12.514 13.389 12.6724 13.6814 12.6724C13.9749 12.6724 14.2337 12.514 14.4118 12.2696C14.591 12.514 14.8498 12.6724 15.1422 12.6724C15.1881 12.6724 15.2329 12.6682 15.2778 12.6613C15.8995 12.5585 16.1941 11.6543 15.8614 11.0029H15.8603ZM15.3237 13.1015H15.3226C15.2632 13.1113 15.2027 13.1168 15.1411 13.1168C15.0022 13.1168 14.8689 13.0904 14.7445 13.0432V14.8946H11.1597V13.0418C11.0343 13.0904 10.8998 13.1168 10.7609 13.1168C10.6993 13.1168 10.6377 13.1113 10.5783 13.1015H10.5772C10.5313 13.0932 10.4865 13.0835 10.4428 13.0696V15.7835C10.4428 16.2738 10.7643 16.6724 11.1597 16.6724H14.7445C15.14 16.6724 15.4615 16.2738 15.4615 15.7835V13.0696C15.4167 13.0835 15.3719 13.0946 15.3237 13.1015Z" fill="#667085"/>
<path d="M4.63654 5.92489C4.85693 5.92489 4.79063 5.74433 4.79063 5.52085C4.79063 5.29736 4.85693 5.11681 4.63654 5.11681H3.59531C2.9354 5.11681 2.39999 5.65974 2.39999 6.32893V9.56125H3.19688L3.19687 6.32893C3.19687 6.10544 3.37493 5.92489 3.59531 5.92489H4.63654Z" fill="#475467"/>
<path d="M11.3634 5.92489C11.143 5.92489 11.2093 5.74433 11.2093 5.52085C11.2093 5.29736 11.143 5.11681 11.3634 5.11681H12.4046C13.0646 5.11681 13.6 5.65974 13.6 6.32893V9.56125H12.8031L12.8031 6.32893C12.8031 6.10544 12.625 5.92489 12.4046 5.92489H11.3634Z" fill="#475467"/>
</svg>
