<svg width="38" height="39" viewBox="0 0 38 39" fill="none" xmlns="http://www.w3.org/2000/svg">
<g filter="url(#filter0_dd_7740_8203)">
<path d="M33.443 2.67236H4.55699C3.69709 2.67236 3 3.36945 3 4.22936V33.1154C3 33.9753 3.69709 34.6724 4.55699 34.6724H33.443C34.3029 34.6724 35 33.9753 35 33.1154V4.22936C35 3.36945 34.3029 2.67236 33.443 2.67236Z" fill="url(#paint0_linear_7740_8203)"/>
<path d="M29.4944 27.008L28.6879 26.2015L19.9977 17.5113L22.5756 14.9334L23.1933 14.3145C23.2523 14.2547 23.2855 14.1742 23.2859 14.0903C23.2857 14.0488 23.2773 14.0077 23.2612 13.9695C23.2451 13.9312 23.2216 13.8965 23.1921 13.8674L22.5732 13.2485L19.8393 10.5097L19.2204 9.8908C19.1912 9.86104 19.1563 9.8374 19.1178 9.82126C19.0793 9.80512 19.038 9.79681 18.9963 9.79681C18.9545 9.79681 18.9132 9.80512 18.8747 9.82126C18.8362 9.8374 18.8014 9.86104 18.7721 9.8908L18.1532 10.5109L14.8029 13.8613C14.7731 13.8904 14.7495 13.9252 14.7334 13.9636C14.7173 14.002 14.709 14.0432 14.709 14.0848C14.709 14.1265 14.7173 14.1677 14.7334 14.2061C14.7495 14.2444 14.7731 14.2792 14.8029 14.3084L18.0033 17.5101L9.31196 26.2015L8.50909 27.008C8.44956 27.067 8.41583 27.1471 8.41528 27.2309C8.41563 27.3119 8.44652 27.3898 8.50178 27.449C8.53129 27.4805 8.56695 27.5057 8.60655 27.5228C8.64616 27.54 8.68887 27.5489 8.73204 27.5489H16.5499C16.6338 27.5486 16.7142 27.5151 16.7735 27.4558C16.8329 27.3965 16.8663 27.3161 16.8667 27.2322V26.4549C16.8667 26.3708 16.8333 26.2901 16.774 26.2305C16.7146 26.1709 16.634 26.1372 16.5499 26.1369H11.3721L18.9999 18.5091L26.6277 26.1369H21.4049C21.3207 26.1372 21.2402 26.1709 21.1808 26.2305C21.1214 26.2901 21.0881 26.3708 21.0881 26.4549V27.2322C21.0879 27.2739 21.0962 27.3152 21.1123 27.3538C21.1284 27.3923 21.1521 27.4271 21.1819 27.4563C21.2411 27.5154 21.3212 27.5487 21.4049 27.5489H29.2702C29.3136 27.5491 29.3566 27.5403 29.3964 27.5231C29.4362 27.5059 29.4721 27.4807 29.5017 27.449C29.5586 27.3893 29.5898 27.3095 29.5884 27.227C29.587 27.1445 29.5533 27.0658 29.4944 27.008ZM18.995 11.6634L21.4231 14.0915L19.0011 16.5135L16.5731 14.0854L18.995 11.6634Z" fill="white"/>
</g>
<defs>
<filter id="filter0_dd_7740_8203" x="0" y="0.672363" width="38" height="38" filterUnits="userSpaceOnUse" color-interpolation-filters="sRGB">
<feFlood flood-opacity="0" result="BackgroundImageFix"/>
<feColorMatrix in="SourceAlpha" type="matrix" values="0 0 0 0 0 0 0 0 0 0 0 0 0 0 0 0 0 0 127 0" result="hardAlpha"/>
<feOffset dy="1"/>
<feGaussianBlur stdDeviation="1"/>
<feColorMatrix type="matrix" values="0 0 0 0 0.0627451 0 0 0 0 0.0941176 0 0 0 0 0.156863 0 0 0 0.06 0"/>
<feBlend mode="normal" in2="BackgroundImageFix" result="effect1_dropShadow_7740_8203"/>
<feColorMatrix in="SourceAlpha" type="matrix" values="0 0 0 0 0 0 0 0 0 0 0 0 0 0 0 0 0 0 127 0" result="hardAlpha"/>
<feOffset dy="1"/>
<feGaussianBlur stdDeviation="1.5"/>
<feColorMatrix type="matrix" values="0 0 0 0 0.0627451 0 0 0 0 0.0941176 0 0 0 0 0.156863 0 0 0 0.1 0"/>
<feBlend mode="normal" in2="effect1_dropShadow_7740_8203" result="effect2_dropShadow_7740_8203"/>
<feBlend mode="normal" in="SourceGraphic" in2="effect2_dropShadow_7740_8203" result="shape"/>
</filter>
<linearGradient id="paint0_linear_7740_8203" x1="9.69459" y1="6.41743" x2="31.5729" y2="35.2328" gradientUnits="userSpaceOnUse">
<stop stop-color="#794FD9"/>
<stop offset="1" stop-color="#33B1F7"/>
</linearGradient>
</defs>
</svg>
