<svg width="136" height="39" viewBox="0 0 136 39" fill="none" xmlns="http://www.w3.org/2000/svg">
<g filter="url(#filter0_dd_7490_20099)">
<path d="M33.443 2.67236H4.55699C3.69709 2.67236 3 3.36945 3 4.22936V33.1154C3 33.9753 3.69709 34.6724 4.55699 34.6724H33.443C34.3029 34.6724 35 33.9753 35 33.1154V4.22936C35 3.36945 34.3029 2.67236 33.443 2.67236Z" fill="url(#paint0_linear_7490_20099)"/>
<path d="M29.4944 27.008L28.6879 26.2015L19.9977 17.5113L22.5756 14.9334L23.1933 14.3145C23.2523 14.2547 23.2855 14.1742 23.2859 14.0903C23.2857 14.0488 23.2773 14.0077 23.2612 13.9695C23.2451 13.9312 23.2216 13.8965 23.1921 13.8674L22.5732 13.2485L19.8393 10.5097L19.2204 9.8908C19.1912 9.86104 19.1563 9.8374 19.1178 9.82126C19.0793 9.80512 19.038 9.79681 18.9963 9.79681C18.9545 9.79681 18.9132 9.80512 18.8747 9.82126C18.8362 9.8374 18.8014 9.86104 18.7721 9.8908L18.1532 10.5109L14.8029 13.8613C14.7731 13.8904 14.7495 13.9252 14.7334 13.9636C14.7173 14.002 14.709 14.0432 14.709 14.0848C14.709 14.1265 14.7173 14.1677 14.7334 14.2061C14.7495 14.2444 14.7731 14.2792 14.8029 14.3084L18.0033 17.5101L9.31196 26.2015L8.50909 27.008C8.44956 27.067 8.41583 27.1471 8.41528 27.2309C8.41563 27.3119 8.44652 27.3898 8.50178 27.449C8.53129 27.4805 8.56695 27.5057 8.60655 27.5228C8.64616 27.54 8.68887 27.5489 8.73204 27.5489H16.5499C16.6338 27.5486 16.7142 27.5151 16.7735 27.4558C16.8329 27.3965 16.8663 27.3161 16.8667 27.2322V26.4549C16.8667 26.3708 16.8333 26.2901 16.774 26.2305C16.7146 26.1709 16.634 26.1372 16.5499 26.1369H11.3721L18.9999 18.5091L26.6277 26.1369H21.4049C21.3207 26.1372 21.2402 26.1709 21.1808 26.2305C21.1214 26.2901 21.0881 26.3708 21.0881 26.4549V27.2322C21.0879 27.2739 21.0962 27.3152 21.1123 27.3538C21.1284 27.3923 21.1521 27.4271 21.1819 27.4563C21.2411 27.5154 21.3212 27.5487 21.4049 27.5489H29.2702C29.3136 27.5491 29.3566 27.5403 29.3964 27.5231C29.4362 27.5059 29.4721 27.4807 29.5017 27.449C29.5586 27.3893 29.5898 27.3095 29.5884 27.227C29.587 27.1445 29.5533 27.0658 29.4944 27.008ZM18.995 11.6634L21.4231 14.0915L19.0011 16.5135L16.5731 14.0854L18.995 11.6634Z" fill="white"/>
</g>
<path d="M47 11.8245V9.73035H58.0025V11.8245H53.7402V23.5204H51.2623V11.8245H47ZM61.5847 23.7292C60.9293 23.7292 60.339 23.6125 59.8137 23.3791C59.293 23.1411 58.8801 22.791 58.5748 22.3286C58.274 21.8662 58.1237 21.2962 58.1237 20.6183C58.1237 20.0347 58.2314 19.5522 58.4469 19.1706C58.6623 18.7891 58.9564 18.4838 59.3289 18.2549C59.7015 18.026 60.1213 17.8531 60.5881 17.7364C61.0595 17.6152 61.5465 17.5277 62.0493 17.4738C62.6553 17.411 63.1468 17.3548 63.5239 17.3055C63.901 17.2516 64.1748 17.1708 64.3454 17.0631C64.5204 16.9509 64.608 16.778 64.608 16.5446V16.5042C64.608 15.9969 64.4576 15.6042 64.1569 15.3259C63.8561 15.0475 63.4229 14.9083 62.8573 14.9083C62.2602 14.9083 61.7867 15.0385 61.4365 15.2989C61.0909 15.5593 60.8575 15.8667 60.7362 16.2214L58.4603 15.8982C58.6399 15.2697 58.9362 14.7445 59.3491 14.3226C59.7621 13.8961 60.2672 13.5774 60.8642 13.3664C61.4612 13.1509 62.1211 13.0432 62.8438 13.0432C63.3421 13.0432 63.8381 13.1016 64.3319 13.2182C64.8257 13.335 65.2768 13.528 65.6853 13.7973C66.0938 14.0622 66.4215 14.4235 66.6684 14.8815C66.9198 15.3393 67.0455 15.9116 67.0455 16.5985V23.5204H64.7022V22.0997H64.6215C64.4733 22.387 64.2646 22.6563 63.9952 22.9077C63.7304 23.1546 63.396 23.3544 62.992 23.507C62.5924 23.6551 62.1234 23.7292 61.5847 23.7292ZM62.2176 21.9381C62.7069 21.9381 63.1311 21.8416 63.4902 21.6485C63.8493 21.451 64.1254 21.1907 64.3184 20.8674C64.5159 20.5443 64.6147 20.1919 64.6147 19.8103V18.5915C64.5384 18.6544 64.4082 18.7128 64.2242 18.7666C64.0446 18.8205 63.8426 18.8676 63.6182 18.908C63.3937 18.9484 63.1715 18.9843 62.9516 19.0157C62.7316 19.0472 62.5408 19.0741 62.3792 19.0966C62.0156 19.1459 61.6902 19.2268 61.4028 19.339C61.1156 19.4512 60.8889 19.6083 60.7228 19.8103C60.5567 20.0078 60.4737 20.2637 60.4737 20.5779C60.4737 21.0268 60.6375 21.3657 60.9652 21.5947C61.2929 21.8236 61.7104 21.9381 62.2176 21.9381ZM71.934 17.4603V23.5204H69.4965V13.1779H71.8263V14.9353H71.9475C72.1854 14.3562 72.5647 13.8961 73.0854 13.5549C73.6106 13.2138 74.2593 13.0432 75.0313 13.0432C75.7451 13.0432 76.3668 13.1958 76.8966 13.5011C77.4307 13.8063 77.8437 14.2485 78.1355 14.8275C78.4318 15.4066 78.5777 16.1091 78.5732 16.9351V23.5204H76.1357V17.3122C76.1357 16.6209 75.9561 16.08 75.597 15.6894C75.2424 15.2989 74.7508 15.1037 74.1224 15.1037C73.6959 15.1037 73.3166 15.1979 72.9844 15.3864C72.6567 15.5705 72.3986 15.8376 72.2101 16.1877C72.026 16.5378 71.934 16.962 71.934 17.4603ZM85.549 27.6143C84.6737 27.6143 83.9218 27.4952 83.2933 27.2576C82.6649 27.0242 82.1598 26.7101 81.7783 26.3149C81.3968 25.9197 81.1319 25.4824 80.9838 25.0018L83.1788 24.4699C83.2776 24.6719 83.4212 24.8716 83.6098 25.0691C83.7983 25.2711 84.0519 25.4373 84.3707 25.5677C84.6939 25.7022 85.1002 25.7692 85.5894 25.7692C86.2807 25.7692 86.8531 25.6009 87.3065 25.2644C87.7598 24.9322 87.9866 24.3846 87.9866 23.6215V21.662H87.8653C87.7396 21.9134 87.5556 22.1715 87.3132 22.4364C87.0753 22.7012 86.7588 22.9234 86.3638 23.103C85.9733 23.2825 85.4817 23.3723 84.8891 23.3723C84.0946 23.3723 83.3741 23.186 82.7277 22.8134C82.0858 22.4364 81.574 21.8752 81.1925 21.1301C80.8154 20.3804 80.6269 19.4422 80.6269 18.3155C80.6269 17.1797 80.8154 16.2214 81.1925 15.4403C81.574 14.6547 82.088 14.0599 82.7344 13.656C83.3809 13.2475 84.1014 13.0432 84.8959 13.0432C85.5019 13.0432 86.0002 13.1464 86.3907 13.3529C86.7858 13.5549 87.1 13.7996 87.3334 14.0868C87.5668 14.3697 87.7441 14.6368 87.8653 14.8881H88V13.1779H90.4038V23.6888C90.4038 24.5731 90.1929 25.3046 89.7709 25.8841C89.3489 26.463 88.7721 26.8962 88.0404 27.1836C87.3087 27.4709 86.4782 27.6143 85.549 27.6143ZM85.5692 21.46C86.0854 21.46 86.5254 21.3343 86.889 21.083C87.2526 20.8315 87.5287 20.4702 87.7172 19.9988C87.9057 19.5275 88 18.9619 88 18.302C88 17.6511 87.9057 17.081 87.7172 16.5917C87.5331 16.1024 87.2593 15.7231 86.8957 15.4538C86.5366 15.1799 86.0944 15.043 85.5692 15.043C85.0261 15.043 84.5727 15.1844 84.2091 15.4672C83.8454 15.7501 83.5716 16.1384 83.3876 16.6321C83.2035 17.1214 83.1115 17.6781 83.1115 18.302C83.1115 18.935 83.2035 19.4894 83.3876 19.9652C83.5761 20.4366 83.8522 20.8046 84.2158 21.0694C84.5839 21.3298 85.035 21.46 85.5692 21.46ZM97.4134 23.7224C96.4034 23.7224 95.528 23.5002 94.7874 23.0558C94.0467 22.6114 93.4721 21.9897 93.0636 21.1907C92.6595 20.3916 92.4575 19.4579 92.4575 18.3895C92.4575 17.3212 92.6595 16.3852 93.0636 15.5817C93.4721 14.7782 94.0467 14.1542 94.7874 13.7098C95.528 13.2654 96.4034 13.0432 97.4134 13.0432C98.4234 13.0432 99.2988 13.2654 100.039 13.7098C100.78 14.1542 101.352 14.7782 101.756 15.5817C102.165 16.3852 102.369 17.3212 102.369 18.3895C102.369 19.4579 102.165 20.3916 101.756 21.1907C101.352 21.9897 100.78 22.6114 100.039 23.0558C99.2988 23.5002 98.4234 23.7224 97.4134 23.7224ZM97.4268 21.7698C97.9745 21.7698 98.4324 21.6194 98.8005 21.3186C99.1686 21.0133 99.4424 20.6048 99.6219 20.0931C99.806 19.5814 99.8981 19.0113 99.8981 18.3828C99.8981 17.7499 99.806 17.1776 99.6219 16.6658C99.4424 16.1496 99.1686 15.7388 98.8005 15.4336C98.4324 15.1283 97.9745 14.9757 97.4268 14.9757C96.8657 14.9757 96.3989 15.1283 96.0263 15.4336C95.6582 15.7388 95.3821 16.1496 95.1981 16.6658C95.0185 17.1776 94.9287 17.7499 94.9287 18.3828C94.9287 19.0113 95.0185 19.5814 95.1981 20.0931C95.3821 20.6048 95.6582 21.0133 96.0263 21.3186C96.3989 21.6194 96.8657 21.7698 97.4268 21.7698ZM104.546 23.5204V9.73035H113.515V11.8245H107.044V15.5682H113.05V17.6623H107.044V21.4263H113.568V23.5204H104.546ZM117.471 27.3986C117.138 27.3986 116.831 27.372 116.548 27.3181C116.27 27.2689 116.048 27.2102 115.882 27.1433L116.447 25.2442C116.802 25.3473 117.118 25.397 117.397 25.3923C117.675 25.3881 117.919 25.3004 118.13 25.1297C118.346 24.9636 118.528 24.6853 118.676 24.2948L118.885 23.7359L115.134 13.1779H117.72L120.104 20.9887H120.211L122.602 13.1779H125.194L121.053 24.7728C120.86 25.3206 120.604 25.7899 120.285 26.1804C119.967 26.575 119.576 26.876 119.113 27.0822C118.656 27.2932 118.108 27.3986 117.471 27.3986ZM131.108 23.7224C130.071 23.7224 129.175 23.507 128.421 23.076C127.671 22.6406 127.094 22.0256 126.69 21.2311C126.287 20.432 126.085 19.4916 126.085 18.4098C126.085 17.3458 126.287 16.4122 126.69 15.6086C127.099 14.8006 127.669 14.1722 128.401 13.7233C129.133 13.2699 129.992 13.0432 130.98 13.0432C131.617 13.0432 132.219 13.1464 132.784 13.3529C133.355 13.5549 133.857 13.8691 134.293 14.2956C134.732 14.7221 135.078 15.2652 135.33 15.9251C135.581 16.5805 135.706 17.3616 135.706 18.2684V19.0157H127.229V17.3728H133.37C133.366 16.9059 133.265 16.4907 133.067 16.1271C132.869 15.759 132.593 15.4695 132.239 15.2585C131.889 15.0475 131.48 14.942 131.013 14.942C130.515 14.942 130.077 15.0632 129.7 15.3057C129.323 15.5436 129.029 15.8578 128.818 16.2483C128.612 16.6344 128.506 17.0586 128.502 17.5209V18.9552C128.502 19.5567 128.612 20.0729 128.832 20.5039C129.052 20.9303 129.359 21.258 129.754 21.487C130.149 21.7114 130.612 21.8236 131.141 21.8236C131.496 21.8236 131.817 21.7742 132.104 21.6755C132.392 21.5722 132.641 21.4218 132.852 21.2243C133.062 21.0268 133.222 20.7822 133.33 20.4904L135.606 20.7463C135.462 21.3478 135.188 21.873 134.784 22.3219C134.384 22.7663 133.873 23.1119 133.249 23.3589C132.625 23.6013 131.911 23.7224 131.108 23.7224Z" fill="white"/>
<defs>
<filter id="filter0_dd_7490_20099" x="0" y="0.672363" width="38" height="38" filterUnits="userSpaceOnUse" color-interpolation-filters="sRGB">
<feFlood flood-opacity="0" result="BackgroundImageFix"/>
<feColorMatrix in="SourceAlpha" type="matrix" values="0 0 0 0 0 0 0 0 0 0 0 0 0 0 0 0 0 0 127 0" result="hardAlpha"/>
<feOffset dy="1"/>
<feGaussianBlur stdDeviation="1"/>
<feColorMatrix type="matrix" values="0 0 0 0 0.0627451 0 0 0 0 0.0941176 0 0 0 0 0.156863 0 0 0 0.06 0"/>
<feBlend mode="normal" in2="BackgroundImageFix" result="effect1_dropShadow_7490_20099"/>
<feColorMatrix in="SourceAlpha" type="matrix" values="0 0 0 0 0 0 0 0 0 0 0 0 0 0 0 0 0 0 127 0" result="hardAlpha"/>
<feOffset dy="1"/>
<feGaussianBlur stdDeviation="1.5"/>
<feColorMatrix type="matrix" values="0 0 0 0 0.0627451 0 0 0 0 0.0941176 0 0 0 0 0.156863 0 0 0 0.1 0"/>
<feBlend mode="normal" in2="effect1_dropShadow_7490_20099" result="effect2_dropShadow_7490_20099"/>
<feBlend mode="normal" in="SourceGraphic" in2="effect2_dropShadow_7490_20099" result="shape"/>
</filter>
<linearGradient id="paint0_linear_7490_20099" x1="9.69459" y1="6.41743" x2="31.5729" y2="35.2328" gradientUnits="userSpaceOnUse">
<stop stop-color="#794FD9"/>
<stop offset="1" stop-color="#33B1F7"/>
</linearGradient>
</defs>
</svg>
