<svg width="16" height="17" viewBox="0 0 16 17" fill="none" xmlns="http://www.w3.org/2000/svg">
<path d="M14.3843 7.45046L13.3937 7.25358C13.1468 7.20358 12.8937 7.28171 12.7156 7.45983L12.2343 7.94109C11.8718 8.30359 11.2625 8.20359 11.0343 7.74734L10.7437 7.16921C10.5937 6.86921 10.2875 6.67859 9.94997 6.67859C9.47497 6.67859 9.13435 7.13484 9.27185 7.59109L9.45935 8.21297C9.6031 8.69422 9.24372 9.1786 8.7406 9.1786H8.66872C8.24998 9.1786 7.85935 9.38798 7.6281 9.73485L7.29373 10.238C7.11873 10.5036 7.1281 10.8505 7.31873 11.1036L7.82185 11.7755C8.14373 12.2036 7.92498 12.8224 7.4031 12.9536L6.87185 13.088C6.63748 13.1474 6.44686 13.313 6.35623 13.538L5.84373 14.8161C6.51873 15.0442 7.24373 15.1724 7.99998 15.1724C11.5906 15.1724 14.5 12.263 14.5 8.67234C14.5 8.25359 14.4593 7.84421 14.3843 7.45046ZM1.64375 7.30671C1.83124 7.30671 1.81249 7.35358 1.92499 7.28171L2.41874 7.14421C2.62812 7.08483 2.84999 7.17233 2.96562 7.35358L3.02812 7.45046C3.21562 7.74421 3.54061 7.92234 3.89061 7.92234C4.24061 7.92234 4.56561 7.74421 4.75311 7.45046L4.94374 7.15358C4.98749 7.08483 5.04998 7.02546 5.12186 6.98796L6.24998 6.35671C6.81561 6.04109 7.04685 5.34422 6.78123 4.75359L6.60935 4.3661C6.34061 3.7661 5.64998 3.47547 5.03124 3.70672L4.94999 3.73797C4.63749 3.85359 4.66874 3.75673 4.39999 3.55985L3.96874 3.57547C2.39999 4.35985 1.92187 5.65672 1.6 7.15984L1.64375 7.30671ZM16 8.67234C16 10.7941 15.1571 12.8289 13.6568 14.3292C12.1565 15.8295 10.1217 16.6724 7.99998 16.6724C5.87825 16.6724 3.84343 15.8295 2.34314 14.3292C0.842852 12.8289 0 10.7941 0 8.67234C0 6.55062 0.842852 4.51579 2.34314 3.0155C3.84343 1.51521 5.87825 0.672363 7.99998 0.672363C10.1217 0.672363 12.1565 1.51521 13.6568 3.0155C15.1571 4.51579 16 6.55062 16 8.67234ZM11.4843 5.79421C11.55 5.52546 11.3875 5.25359 11.1218 5.18796L10.1218 4.93797C9.8531 4.87234 9.58122 5.03484 9.5156 5.30046C9.44997 5.56609 9.61247 5.84109 9.8781 5.90671L10.8781 6.15671C11.1468 6.22234 11.4187 6.05984 11.4843 5.79421ZM8.60935 6.41921C8.67497 6.15046 8.51248 5.87859 8.24685 5.81296C7.98123 5.74734 7.70623 5.90984 7.6406 6.17546L7.3906 7.17546C7.32498 7.44421 7.48748 7.71609 7.7531 7.78171C8.01873 7.84734 8.29373 7.68483 8.35935 7.41921L8.60935 6.41921Z" fill="#475467"/>
<path d="M2.45522 6.72491C2.59366 6.91287 2.35423 6.95047 2.22966 6.95047C2.10509 6.95047 2.0041 6.84948 2.0041 6.72491C2.0041 6.60033 2.10509 6.34897 2.22966 6.34897C2.35423 6.34897 2.45522 6.60033 2.45522 6.72491Z" fill="#475467"/>
<path d="M4.20498 12.5282C4.62113 12.0061 5.57024 10.7406 5.57024 10.0297C5.57024 9.16762 4.87261 8.46815 4.01273 8.46815C3.15285 8.46815 2.45522 9.16762 2.45522 10.0297C2.45522 10.7406 3.40433 12.0061 3.82047 12.5282C3.92025 12.6527 4.10521 12.6527 4.20498 12.5282ZM4.01273 9.5092C4.15042 9.5092 4.28247 9.56404 4.37984 9.66166C4.4772 9.75927 4.5319 9.89168 4.5319 10.0297C4.5319 10.1678 4.4772 10.3002 4.37984 10.3978C4.28247 10.4954 4.15042 10.5502 4.01273 10.5502C3.87504 10.5502 3.74298 10.4954 3.64562 10.3978C3.54826 10.3002 3.49356 10.1678 3.49356 10.0297C3.49356 9.89168 3.54826 9.75927 3.64562 9.66166C3.74298 9.56404 3.87504 9.5092 4.01273 9.5092Z" fill="#667085"/>
<path d="M13.0419 10.9666C13.9436 9.79182 16 6.94443 16 5.34506C16 3.40532 14.4884 1.83156 12.6253 1.83156C10.7623 1.83156 9.25074 3.40532 9.25074 5.34506C9.25074 6.94443 11.3071 9.79182 12.2088 10.9666C12.425 11.2466 12.8257 11.2466 13.0419 10.9666ZM12.6253 4.17389C12.9237 4.17389 13.2098 4.29728 13.4207 4.51692C13.6317 4.73656 13.7502 5.03445 13.7502 5.34506C13.7502 5.65567 13.6317 5.95356 13.4207 6.1732C13.2098 6.39283 12.9237 6.51622 12.6253 6.51622C12.327 6.51622 12.0409 6.39283 11.8299 6.1732C11.619 5.95356 11.5005 5.65567 11.5005 5.34506C11.5005 5.03445 11.619 4.73656 11.8299 4.51692C12.0409 4.29728 12.327 4.17389 12.6253 4.17389Z" fill="#667085"/>
</svg>
