<svg width="16" height="17" viewBox="0 0 16 17" fill="none" xmlns="http://www.w3.org/2000/svg">
<path d="M0.677249 16.4946H5.41799C6.09524 16.4946 6.09524 16.1938 6.09524 14.9904V7.50698C6.09524 7.07031 5.79228 6.71685 5.41799 6.71685H0.677249C0.2709 6.71685 0 7.01771 0 7.46899V15.7425C0 16.1938 0.2709 16.4946 0.677249 16.4946Z" fill="#475467"/>
<path d="M0.673874 5.11681H5.39099C5.79531 5.11681 6.06486 4.76125 6.06486 4.22792V1.56125C6.06486 1.02792 5.79531 0.672363 5.39099 0.672363H0.673874C0.269549 0.672363 0 1.02792 0 1.56125V4.22792C0 4.67236 0.269549 5.11681 0.673874 5.11681Z" fill="#475467"/>
<path d="M2.27003 2.58547C2.27003 2.87414 2.09173 3.10816 1.87179 3.10816C1.65185 3.10816 1.47354 2.87414 1.47354 2.58547C1.47354 2.29679 1.65185 2.06277 1.87179 2.06277C2.09173 2.06277 2.27003 2.29679 2.27003 2.58547Z" fill="#667085"/>
<path d="M3.46448 2.58547C3.46448 2.87414 3.28618 3.10816 3.06623 3.10816C2.84629 3.10816 2.66799 2.87414 2.66799 2.58547C2.66799 2.29679 2.84629 2.06277 3.06623 2.06277C3.28618 2.06277 3.46448 2.29679 3.46448 2.58547Z" fill="#667085"/>
<path d="M4.66025 2.58547C4.66025 2.87414 4.48195 3.10816 4.262 3.10816C4.04206 3.10816 3.86376 2.87414 3.86376 2.58547C3.86376 2.29679 4.04206 2.06277 4.262 2.06277C4.48195 2.06277 4.66025 2.29679 4.66025 2.58547Z" fill="#667085"/>
<path fill-rule="evenodd" clip-rule="evenodd" d="M7.61905 16.6724V0.672363H8.38095V16.6724H7.61905Z" fill="#667085"/>
<path d="M15.3227 0.672363H10.582C10.1757 0.672363 9.90476 0.973218 9.90476 1.4245V9.698C9.90476 10.1493 10.1757 10.4501 10.582 10.4501H15.3227C15.7291 10.4501 16 10.1493 16 9.698V1.4245C16 0.973218 15.7291 0.672363 15.3227 0.672363Z" fill="#475467"/>
<path d="M9.93519 15.7835V13.1168C9.93519 12.5835 10.2047 12.2279 10.6091 12.2279H15.3261C15.7305 12.2279 16 12.5835 16 13.1168V15.7835C16 16.3168 15.7305 16.6724 15.3261 16.6724H10.6091C10.2047 16.6724 9.93519 16.3168 9.93519 15.7835Z" fill="#475467"/>
<path d="M12.0531 14.106C12.0531 14.3947 11.8748 14.6287 11.6549 14.6287C11.4349 14.6287 11.2566 14.3947 11.2566 14.106C11.2566 13.8173 11.4349 13.5833 11.6549 13.5833C11.8748 13.5833 12.0531 13.8173 12.0531 14.106Z" fill="#667085"/>
<path d="M13.2475 14.106C13.2475 14.3947 13.0692 14.6287 12.8493 14.6287C12.6294 14.6287 12.4511 14.3947 12.4511 14.106C12.4511 13.8173 12.6294 13.5833 12.8493 13.5833C13.0692 13.5833 13.2475 13.8173 13.2475 14.106Z" fill="#667085"/>
<path d="M14.4433 14.106C14.4433 14.3947 14.265 14.6287 14.0451 14.6287C13.8251 14.6287 13.6468 14.3947 13.6468 14.106C13.6468 13.8173 13.8251 13.5833 14.0451 13.5833C14.265 13.5833 14.4433 13.8173 14.4433 14.106Z" fill="#667085"/>
</svg>
