<svg width="16" height="17" viewBox="0 0 16 17" fill="none" xmlns="http://www.w3.org/2000/svg">
<path d="M5.85355 3.81882C6.04882 4.01408 6.04882 4.33066 5.85355 4.52592L3.85355 6.52592C3.65829 6.72119 3.34171 6.72119 3.14645 6.52592L2.14645 5.52592C1.95118 5.33066 1.95118 5.01408 2.14645 4.81882C2.34171 4.62355 2.65829 4.62355 2.85355 4.81882L3.5 5.46526L5.14645 3.81882C5.34171 3.62355 5.65829 3.62355 5.85355 3.81882Z" fill="#475467"/>
<path d="M5.85355 8.81876C6.04882 9.01406 6.04882 9.33066 5.85355 9.52596L3.85355 11.526C3.65829 11.7212 3.34171 11.7212 3.14645 11.526L2.14645 10.526C1.95118 10.3307 1.95118 10.0141 2.14645 9.81876C2.34171 9.62356 2.65829 9.62356 2.85355 9.81876L3.5 10.4653L5.14645 8.81876C5.34171 8.62356 5.65829 8.62356 5.85355 8.81876Z" fill="#475467"/>
<path d="M7 5.17236C7 4.89622 7.2239 4.67236 7.5 4.67236H10.5C10.7761 4.67236 11 4.89622 11 5.17236C11 5.4485 10.7761 5.67236 10.5 5.67236H7.5C7.2239 5.67236 7 5.4485 7 5.17236Z" fill="#475467"/>
<path d="M2.5 0.672363C1.11929 0.672363 0 1.79165 0 3.17236V12.1724C0 13.5531 1.11929 14.6724 2.5 14.6724H6.59971C6.43777 14.3556 6.30564 14.021 6.20703 13.6724H2.5C1.67157 13.6724 1 13.0008 1 12.1724V3.17236C1 2.34393 1.67157 1.67236 2.5 1.67236H11.5C12.3284 1.67236 13 2.34393 13 3.17236V6.87939C13.3486 6.978 13.6832 7.11013 14 7.27207V3.17236C14 1.79165 12.8807 0.672363 11.5 0.672363H2.5Z" fill="#475467"/>
<path d="M11.5 16.6724C13.9853 16.6724 16 14.6577 16 12.1724C16 9.68706 13.9853 7.67236 11.5 7.67236C9.0147 7.67236 7 9.68706 7 12.1724C7 14.6577 9.0147 16.6724 11.5 16.6724ZM11.5 9.67236C11.7761 9.67236 12 9.89626 12 10.1724V11.6724H13.5C13.7761 11.6724 14 11.8963 14 12.1724C14 12.4485 13.7761 12.6724 13.5 12.6724H12V14.1724C12 14.4485 11.7761 14.6724 11.5 14.6724C11.2239 14.6724 11 14.4485 11 14.1724V12.6724H9.5C9.2239 12.6724 9 12.4485 9 12.1724C9 11.8963 9.2239 11.6724 9.5 11.6724H11V10.1724C11 9.89626 11.2239 9.67236 11.5 9.67236Z" fill="#667085"/>
</svg>
