<svg width="16" height="17" viewBox="0 0 16 17" fill="none" xmlns="http://www.w3.org/2000/svg">
<path d="M8 0.672363L7.55816 0.692363L10.1088 3.23236L11.0126 2.33903C13.1883 3.3857 14.7548 5.49903 14.9958 8.0057H16C15.6586 3.89903 12.2109 0.672363 8 0.672363ZM0 9.33903C0.341423 13.4457 3.78912 16.6724 8 16.6724L8.44184 16.6524L5.89121 14.1124L4.98745 15.0057C2.81172 13.9657 1.24519 11.8457 1.00418 9.33903H0Z" fill="#667085"/>
<path d="M12.8 8.54449V9.14066C12.8 9.46584 12.5962 9.68263 12.3415 9.73683L11.6792 9.84522C11.5773 10.2788 11.4245 10.7124 11.1698 11.0918L11.5773 11.6879C11.7301 11.9047 11.7302 12.284 11.5264 12.5008L11.1188 12.9345C10.915 13.1512 10.6094 13.1512 10.3546 12.9887L9.79423 12.5551C9.43761 12.7719 9.03005 12.9887 8.62249 13.097L8.5206 13.8016C8.46965 14.0726 8.21493 14.2894 7.9602 14.2894H7.3998C7.09413 14.2894 6.89035 14.0726 6.8394 13.8016L6.73751 13.097C6.32995 12.9887 5.92239 12.8261 5.56577 12.5551L5.00537 12.9887C4.80159 13.1512 4.44498 13.1512 4.24119 12.9345L3.83363 12.5008C3.62985 12.284 3.62985 11.9589 3.78269 11.6879L4.19025 11.0918C3.98647 10.7124 3.78269 10.2788 3.6808 9.84522L3.01851 9.73683C2.76378 9.68263 2.56 9.41165 2.56 9.14066V8.54449C2.56 8.21931 2.76378 8.00252 3.01851 7.94832L3.6808 7.83993C3.78269 7.40633 3.93552 6.97279 4.19025 6.59341L3.78269 5.99719C3.62985 5.7804 3.62985 5.40102 3.83363 5.18423L4.24119 4.75069C4.44498 4.53391 4.75065 4.53392 5.00537 4.69651L5.56577 5.13005C5.92239 4.91326 6.32995 4.69647 6.73751 4.58808L6.8394 3.88355C6.89035 3.61257 7.14507 3.39577 7.3998 3.39577H7.9602C8.26587 3.39577 8.46965 3.61257 8.5206 3.88355L8.62249 4.58808C9.03005 4.69647 9.43761 4.85906 9.79423 5.13005L10.3546 4.69651C10.5584 4.53392 10.915 4.53391 11.1188 4.75069L11.5264 5.18423C11.7302 5.40102 11.7301 5.7262 11.5773 5.99719L11.1698 6.59341C11.3735 6.97279 11.5773 7.40633 11.6792 7.83993L12.3415 7.94832C12.5962 8.00252 12.8 8.27351 12.8 8.54449ZM7.70547 6.97276C6.73751 6.97276 5.92239 7.83993 5.92239 8.86968C5.92239 9.89942 6.73751 10.7666 7.70547 10.7666C8.67343 10.7666 9.48856 9.89942 9.48856 8.86968C9.48856 7.83993 8.67343 6.97276 7.70547 6.97276Z" fill="#475467"/>
<path d="M10.2555 8.87266C10.2555 10.3902 9.13473 11.5825 7.70826 11.5825C6.2818 11.5825 5.161 10.3902 5.161 8.87266C5.161 7.35513 6.2818 6.16279 7.70826 6.16279C9.13473 6.16279 10.2555 7.35513 10.2555 8.87266ZM7.70826 7.78872C7.14786 7.78872 6.68936 8.27649 6.68936 8.87266C6.68936 9.46883 7.14786 9.9566 7.70826 9.9566C8.26866 9.9566 8.72717 9.46883 8.72717 8.87266C8.72717 8.27649 8.26866 7.78872 7.70826 7.78872Z" fill="#667085"/>
</svg>
