<svg width="16" height="15" viewBox="0 0 16 15" fill="none" xmlns="http://www.w3.org/2000/svg">
<path d="M7.93585 0.960348L7.93586 0.960338C8.21831 0.677897 8.59889 0.515401 8.99824 0.506737C9.39758 0.498074 9.78485 0.643912 10.0793 0.913838L10.0794 0.913914L10.8121 1.58664C10.8121 1.58667 10.8121 1.58669 10.8121 1.58672C11.0742 1.82606 11.1432 2.14986 11.1204 2.41623L11.1203 2.41704C11.0963 2.68016 10.9814 2.93595 10.8033 3.12892C10.7191 3.22087 10.6538 3.32851 10.6111 3.44569C10.5684 3.56294 10.5492 3.68746 10.5546 3.81213C10.56 3.9368 10.5899 4.05918 10.6426 4.17229L10.5067 4.23565L10.6426 4.17229C10.6953 4.28539 10.7698 4.38701 10.8618 4.47134C10.9538 4.55566 11.0615 4.62105 11.1787 4.66376C11.296 4.70646 11.4205 4.72566 11.5451 4.72024C11.6698 4.71483 11.7922 4.68492 11.9053 4.63221C12.0184 4.5795 12.12 4.50502 12.2043 4.41304L12.3149 4.51441L12.2041 4.41334C12.3807 4.21966 12.6246 4.08322 12.8838 4.03605C13.0342 4.0061 13.1894 4.0114 13.3374 4.05156C13.4859 4.09184 13.6229 4.16609 13.7377 4.26843L13.7393 4.26982L13.7393 4.26983L14.6263 5.08283L14.6263 5.08288C14.7775 5.22161 14.8996 5.38898 14.9857 5.57528C15.0717 5.76158 15.1198 5.9631 15.1273 6.16816C15.1349 6.37321 15.1016 6.57772 15.0295 6.76981C14.9573 6.96191 14.8478 7.13778 14.7071 7.2872L8.10917 14.2992L8.10916 14.2992C7.96691 14.4504 7.79574 14.5714 7.60581 14.6552C7.41589 14.7389 7.21107 14.7837 7.00352 14.7868C6.79596 14.7899 6.5899 14.7513 6.39756 14.6732C6.20522 14.5952 6.03051 14.4793 5.88381 14.3324M7.93585 0.960348L5.01893 12.1824M7.93585 0.960348L1.32088 7.57633C1.17694 7.72027 1.06275 7.89115 0.984847 8.07921C0.906943 8.26728 0.866846 8.46884 0.866846 8.67241C0.866846 8.87597 0.906943 9.07754 0.984847 9.2656C1.06275 9.45367 1.17694 9.62454 1.32088 9.76848M7.93585 0.960348L1.42695 9.66241M5.88381 14.3324L5.98993 14.2264M5.88381 14.3324L5.88387 14.3325L5.98993 14.2264M5.88381 14.3324L4.97987 13.4285C4.56386 13.0125 4.67498 12.427 4.89412 12.0992M5.98993 14.2264C6.12244 14.359 6.28024 14.4637 6.45396 14.5342C6.62769 14.6047 6.81381 14.6396 7.00128 14.6368C7.18875 14.634 7.37374 14.5936 7.54529 14.5179C7.71683 14.4423 7.87144 14.3329 7.99993 14.1964L5.98993 14.2264ZM4.89412 12.0992C4.89417 12.0991 4.89421 12.0991 4.89426 12.099L5.01893 12.1824M4.89412 12.0992C4.89408 12.0993 4.89405 12.0993 4.89401 12.0994L5.01893 12.1824M4.89412 12.0992C5.01549 11.9165 5.06991 11.6975 5.04814 11.4792C5.02637 11.2609 4.92972 11.0569 4.77458 10.9018C4.61945 10.7466 4.41541 10.65 4.1971 10.6282C3.9788 10.6064 3.75968 10.6609 3.57697 10.7823L3.57665 10.7825C3.2475 11.0001 2.66287 11.1117 2.24672 10.6943M5.01893 12.1824C5.15955 11.9708 5.22261 11.7171 5.1974 11.4644C5.1722 11.2116 5.06028 10.9753 4.88065 10.7957C4.70102 10.6161 4.46476 10.5041 4.21199 10.4789C3.95921 10.4537 3.7055 10.5168 3.49394 10.6574C3.19894 10.8524 2.69994 10.9364 2.35294 10.5884M2.24672 10.6943L2.24688 10.6945L2.35294 10.5884M2.24672 10.6943L2.35294 10.5884M2.24672 10.6943L1.32088 9.76848M2.35294 10.5884L1.42695 9.66241M1.42695 9.66241L1.32088 9.76848M1.42695 9.66241L1.32088 9.76847L1.32088 9.76848M9.33552 1.72494L9.33556 1.72497L10.0161 2.34887C10.0108 2.36159 10.0036 2.37345 9.99442 2.38393C9.80729 2.58076 9.66113 2.81282 9.56444 3.06663C9.46742 3.32132 9.42216 3.59279 9.4313 3.86518C9.44044 4.13756 9.5038 4.40539 9.61767 4.653C9.73155 4.9006 9.89366 5.12302 10.0945 5.30723C10.2954 5.49144 10.5309 5.63376 10.7874 5.72585C11.044 5.81794 11.3163 5.85796 11.5884 5.84356C11.8606 5.82917 12.1271 5.76065 12.3725 5.64202C12.6172 5.52371 12.8359 5.35795 13.0159 5.15436C13.0256 5.14417 13.0368 5.1357 13.0491 5.12923L13.8825 5.89393L13.8826 5.89398C13.9265 5.93422 13.9619 5.98277 13.9869 6.03682C14.0119 6.09087 14.0259 6.14934 14.0282 6.20885C14.0304 6.26835 14.0208 6.32771 13.9999 6.38348C13.9791 6.43924 13.9473 6.49031 13.9066 6.53371C13.9066 6.53372 13.9066 6.53373 13.9066 6.53373L7.30769 13.5456L7.3076 13.5457C7.2663 13.5897 7.21659 13.6249 7.16142 13.6492C7.10624 13.6736 7.04673 13.6866 6.98642 13.6875C6.92611 13.6884 6.86624 13.6772 6.81035 13.6545C6.75447 13.6318 6.70371 13.5981 6.66111 13.5555L6.66106 13.5554L5.81133 12.7047C6.07257 12.3112 6.18992 11.8395 6.14344 11.3693C6.09681 10.8976 5.88814 10.4566 5.55296 10.1214C5.21777 9.7862 4.77678 9.57753 4.30506 9.5309C3.83467 9.4844 3.36271 9.60188 2.96906 9.86339L2.09701 8.99134L2.09695 8.99128C2.05511 8.94949 2.02192 8.89986 1.99927 8.84523C1.97663 8.7906 1.96497 8.73204 1.96497 8.6729C1.96497 8.61377 1.97663 8.55521 1.99927 8.50058C2.02192 8.44595 2.05511 8.39632 2.09695 8.35453L2.09701 8.35447L8.71299 1.73847L8.71302 1.73844C8.79503 1.65638 8.90557 1.60916 9.02156 1.60665C9.13755 1.60413 9.25003 1.64651 9.33552 1.72494Z" fill="#667085" stroke="#667085" stroke-width="0.3"/>
</svg>
