<svg width="16" height="17" viewBox="0 0 16 17" fill="none" xmlns="http://www.w3.org/2000/svg">
<path d="M3 5.79346C1.895 5.79346 1 4.81455 1 3.60596C1 2.39736 1.895 1.41846 3 1.41846C4.105 1.41846 5 2.39736 5 3.60596C5 4.81455 4.105 5.79346 3 5.79346ZM13.0989 5.79346C11.9939 5.79346 11.0989 4.81455 11.0989 3.60596C11.0989 2.39736 11.9939 1.41846 13.0989 1.41846C14.2039 1.41846 15.0989 2.39736 15.0989 3.60596C15.0989 4.81455 14.2039 5.79346 13.0989 5.79346ZM10.3393 7.54346C10.3393 8.99268 9.26433 10.1685 7.93933 10.1685C6.61433 10.1685 5.53932 8.99268 5.53932 7.54346C5.53932 6.09424 6.61433 4.91846 7.93933 4.91846C9.26433 4.91846 10.3393 6.09424 10.3393 7.54346Z" fill="#667085"/>
<path d="M2.6675 7.17627C1.195 7.17627 0 8.4833 0 10.0938C0 10.4138 0.240001 10.6763 0.532501 10.6763H5.8675H5.885C5.2225 10.0337 4.8025 9.0958 4.8025 8.05127C4.8025 7.84346 4.8175 7.63838 4.85 7.4415C4.51 7.27197 4.1325 7.17627 3.735 7.17627H2.6675Z" fill="#475467"/>
<path d="M10.115 10.6763H10.1325H15.4675C15.76 10.6763 16 10.4165 16 10.0938C16 8.4833 14.805 7.17627 13.3325 7.17627H12.265C11.8675 7.17627 11.49 7.26924 11.15 7.4415C11.18 7.64111 11.1975 7.84346 11.1975 8.05127C11.1975 9.0958 10.78 10.0337 10.115 10.6763Z" fill="#475467"/>
<path d="M6.5325 11.5513C4.6925 11.5513 3.2 13.1837 3.2 15.1962C3.2 15.6009 3.5 15.9263 3.8675 15.9263H12.1325C12.5025 15.9263 12.8 15.5981 12.8 15.1962C12.8 13.1837 11.3075 11.5513 9.4675 11.5513H6.5325Z" fill="#475467"/>
</svg>
